<svg width="21" height="19" viewBox="0 0 21 19" fill="none" xmlns="http://www.w3.org/2000/svg">
<path d="M1.81854 16.0602C-0.0111108 12.8429 1.23392 7.79684 5.01899 4.02143C9.31732 -0.264162 15.2607 -1.28587 18.2952 1.73945C18.2987 1.74341 18.3017 1.7479 18.3066 1.75192C17.6993 3.51381 15.7653 7.26265 9.96821 9.28945C4.65778 11.1471 2.60927 14.1005 1.81854 16.0602ZM19.1487 2.84081C18.6887 3.91077 17.8882 5.30904 16.5088 6.68435C15.1224 8.06746 13.1518 9.42587 10.3606 10.4022C4.69565 12.3831 3.11284 15.6259 2.67122 17.1974C2.69208 17.2184 2.71002 17.2401 2.7303 17.2605C5.76449 20.2859 11.7081 19.2643 16.0061 14.978C19.8306 11.1643 21.0606 6.05278 19.1487 2.84081Z" fill="#505050"/>
</svg>
